<svg width="190" height="57" viewBox="0 0 190 57" fill="none" xmlns="http://www.w3.org/2000/svg">
<rect width="190" height="57" fill="#2A3A6B"/>
<path d="M43.152 32.4907C44.4678 32.4907 45.4542 33.7085 45.0276 34.9532C42.3834 42.6683 35.6019 47.4702 26.9268 47.4702C24.6417 47.4702 22.6352 47.1407 20.9319 46.5903C20.1557 46.3395 19.6664 45.5973 19.6519 44.7817L19.5872 41.1487C19.5565 39.4262 21.6644 38.268 23.3455 38.6448C24.2247 38.8419 25.1628 38.9429 26.1523 38.9429C30.4292 38.9428 33.7343 37.1024 35.5002 33.7972C35.9065 33.0368 36.6601 32.4907 37.5223 32.4907H43.152ZM26.2295 7.46631C37.0488 7.46632 44.6848 14.0242 46.022 24.1393C46.1761 25.3055 45.227 26.2886 44.0508 26.2886H38.8176C37.7306 26.2886 36.848 25.4401 36.6347 24.3742C35.5709 19.0551 31.6691 15.9948 26.1523 15.9946C19.7177 15.9946 15.4532 20.2584 15.4531 27.4683C15.4531 28.2064 15.5008 28.9134 15.5879 29.5884L15.5636 43.1019C15.5636 43.1308 15.5271 43.1435 15.5089 43.1211C15.4904 43.0985 15.4531 43.1117 15.4531 43.1409V45.8248C15.4531 46.3484 15.0286 46.7729 14.505 46.7729H8.21777C7.07599 46.7729 6.15039 45.8474 6.15039 44.7056V27.5464C6.15039 15.5298 14.2129 7.46631 26.2295 7.46631Z" fill="white"/>
<ellipse cx="26.4892" cy="27.5778" rx="5.73625" ry="5.68549" fill="white"/>
<path d="M56.115 27.4663V13.3243H62.5193C65.6103 13.3243 67.671 15.385 67.671 18.476C67.671 21.6681 65.6103 23.7288 62.5193 23.7288H58.6404V27.4663H56.115ZM62.2971 21.4055C64.0143 21.4055 65.1457 20.2741 65.1457 18.5569C65.1457 16.779 64.0143 15.6477 62.2971 15.6477H58.6404V21.4055H62.2971ZM73.1973 17.2235C76.3287 17.2235 78.4298 19.3246 78.4298 22.456V27.4663H76.0055V26.4966C75.5206 27.1229 74.4903 27.6481 73.0155 27.6481C70.0861 27.6481 67.985 25.547 67.985 22.4156C67.985 19.3044 70.0861 17.2235 73.1973 17.2235ZM76.0055 22.4358C76.0055 20.5569 74.8943 19.4458 73.2175 19.4458C71.5205 19.4458 70.4093 20.5569 70.4093 22.4358C70.4093 24.3147 71.5205 25.4258 73.2175 25.4258C74.8943 25.4258 76.0055 24.3147 76.0055 22.4358ZM84.5262 25.3854V27.6077C81.2129 27.6077 79.4553 25.9309 79.4553 22.8197V13.3243H81.8796V17.3649H84.1827V19.5872H81.8796V22.7995C81.8796 24.6379 82.6271 25.3854 84.5262 25.3854ZM85.3539 27.4663V13.3243H90.7076C94.9098 13.3243 97.516 16.1123 97.516 20.3145C97.516 24.6783 94.9098 27.4663 90.7076 27.4663H85.3539ZM87.8792 25.143H90.4652C93.2936 25.143 94.9906 23.2641 94.9906 20.4357C94.9906 17.5063 93.2936 15.6477 90.4652 15.6477H87.8792V25.143ZM98.1516 22.4156C98.1516 19.3044 100.253 17.2235 103.384 17.2235C106.516 17.2235 108.596 19.3044 108.596 22.4156C108.596 25.547 106.516 27.6481 103.384 27.6481C100.253 27.6481 98.1516 25.547 98.1516 22.4156ZM100.576 22.4358C100.576 24.3147 101.687 25.4258 103.364 25.4258C105.061 25.4258 106.172 24.3147 106.172 22.4358C106.172 20.5569 105.061 19.4458 103.364 19.4458C101.687 19.4458 100.576 20.5569 100.576 22.4358ZM114.613 25.3854V27.6077C111.3 27.6077 109.543 25.9309 109.543 22.8197V13.3243H111.967V17.3649H114.27V19.5872H111.967V22.7995C111.967 24.6379 112.714 25.3854 114.613 25.3854ZM117.823 20.0923C117.823 21.5671 123.318 20.6378 123.318 24.4157C123.318 26.4764 121.681 27.5875 119.378 27.5875C117.237 27.5875 115.863 26.6178 115.237 26.0521L116.53 24.153C117.378 24.9612 118.449 25.3652 119.439 25.3652C120.267 25.3652 120.893 25.0824 120.893 24.4965C120.893 22.759 115.398 23.8298 115.398 20.1327C115.398 18.274 116.792 17.2033 119.075 17.2033C121.075 17.2033 122.388 18.0114 123.277 18.7387L121.984 20.6175C120.914 19.7286 119.863 19.4256 119.035 19.4256C118.247 19.4256 117.823 19.6882 117.823 20.0923ZM124.221 26.1531C124.221 25.2642 124.827 24.6783 125.716 24.6783C126.605 24.6783 127.211 25.2642 127.211 26.1531C127.211 27.0623 126.605 27.6481 125.716 27.6481C124.827 27.6481 124.221 27.0623 124.221 26.1531ZM133.332 17.2235C136.464 17.2235 138.565 19.3246 138.565 22.456V27.4663H136.14V26.4966C135.656 27.1229 134.625 27.6481 133.15 27.6481C130.221 27.6481 128.12 25.547 128.12 22.4156C128.12 19.3044 130.221 17.2235 133.332 17.2235ZM136.14 22.4358C136.14 20.5569 135.029 19.4458 133.352 19.4458C131.655 19.4458 130.544 20.5569 130.544 22.4358C130.544 24.3147 131.655 25.4258 133.352 25.4258C135.029 25.4258 136.14 24.3147 136.14 22.4358ZM139.646 14.4355C139.646 13.7082 140.232 13.1021 140.98 13.1021C141.727 13.1021 142.313 13.7082 142.313 14.4355C142.313 15.2032 141.727 15.7891 140.98 15.7891C140.232 15.7891 139.646 15.2032 139.646 14.4355ZM139.767 27.4663V17.3649H142.192V27.4663H139.767Z" fill="white"/>
<mask id="path-4-inside-1_905_448" fill="white">
<path d="M55.8682 44.9333V35.7593H60.0227C62.0279 35.7593 63.3647 37.0961 63.3647 39.1013C63.3647 41.172 62.0279 42.5088 60.0227 42.5088H57.5064V44.9333H55.8682ZM59.8786 41.0016C60.9925 41.0016 61.7265 40.2677 61.7265 39.1537C61.7265 38.0004 60.9925 37.2665 59.8786 37.2665H57.5064V41.0016H59.8786ZM63.5815 41.6569C63.5815 39.6386 64.9445 38.2887 66.9758 38.2887C69.0072 38.2887 70.3571 39.6386 70.3571 41.6569C70.3571 43.6883 69.0072 45.0513 66.9758 45.0513C64.9445 45.0513 63.5815 43.6883 63.5815 41.6569ZM65.1541 41.67C65.1541 42.8888 65.875 43.6097 66.9627 43.6097C68.0636 43.6097 68.7844 42.8888 68.7844 41.67C68.7844 40.4512 68.0636 39.7304 66.9627 39.7304C65.875 39.7304 65.1541 40.4512 65.1541 41.67ZM72.6192 44.9333L70.1422 38.3805H71.8329L73.4318 42.8233L75.0307 38.3805H76.7213L76.2364 39.6648L77.3635 42.8233L78.9624 38.3805H80.6531L78.1761 44.9333H76.5509L75.3976 41.8666L74.2443 44.9333H72.6192ZM82.2059 40.7395H85.4954C85.2202 40.0973 84.6305 39.7304 83.8441 39.7304C83.0709 39.7304 82.4811 40.0973 82.2059 40.7395ZM83.8441 43.6097C84.4994 43.6097 85.0105 43.3607 85.3251 42.902H87.0419C86.6094 44.2256 85.443 45.0513 83.8572 45.0513C81.8258 45.0513 80.4628 43.6883 80.4628 41.6569C80.4628 39.6386 81.8258 38.2887 83.8572 38.2887C85.8886 38.2887 87.2385 39.6386 87.2385 41.6569C87.2385 41.8404 87.2254 42.0108 87.2123 42.1811H82.0879C82.2583 43.0854 82.9136 43.6097 83.8441 43.6097ZM87.8391 41.2637C87.8391 39.2717 89.0973 38.2625 91.0893 38.2625V39.7041C90.0409 39.7041 89.4118 40.2153 89.4118 41.2637V44.9333H87.8391V41.2637ZM92.9183 40.7395H96.2079C95.9326 40.0973 95.3429 39.7304 94.5565 39.7304C93.7833 39.7304 93.1935 40.0973 92.9183 40.7395ZM94.5565 43.6097C95.2118 43.6097 95.723 43.3607 96.0375 42.902H97.7543C97.3219 44.2256 96.1554 45.0513 94.5696 45.0513C92.5383 45.0513 91.1752 43.6883 91.1752 41.6569C91.1752 39.6386 92.5383 38.2887 94.5696 38.2887C96.601 38.2887 97.9509 39.6386 97.9509 41.6569C97.9509 41.8404 97.9378 42.0108 97.9247 42.1811H92.8004C92.9707 43.0854 93.626 43.6097 94.5565 43.6097ZM103.699 35.7593H105.272V41.67C105.272 43.78 103.765 45.0382 101.838 45.0382C99.8591 45.0382 98.4961 43.6883 98.4961 41.67C98.4961 39.6386 99.8591 38.2756 101.759 38.2756C102.703 38.2756 103.385 38.6164 103.699 39.0226V35.7593ZM100.069 41.6569C100.069 42.8757 100.79 43.5966 101.877 43.5966C102.978 43.5966 103.699 42.8757 103.699 41.6569C103.699 40.4381 102.978 39.7173 101.877 39.7173C100.79 39.7173 100.069 40.4381 100.069 41.6569ZM109.354 35.7593H110.927V39.0226C111.241 38.6164 111.91 38.2756 112.853 38.2756C114.767 38.2756 116.13 39.6386 116.13 41.67C116.13 43.6883 114.767 45.0382 112.774 45.0382C110.861 45.0382 109.354 43.78 109.354 41.67V35.7593ZM114.557 41.6569C114.557 40.4381 113.836 39.7173 112.735 39.7173C111.647 39.7173 110.927 40.4381 110.927 41.6569C110.927 42.8757 111.647 43.5966 112.735 43.5966C113.836 43.5966 114.557 42.8757 114.557 41.6569ZM118.164 44.763L115.91 38.3805H117.548L119.121 42.9151L120.694 38.3805H122.332L120.012 44.9333C119.475 46.4667 119.095 48.1705 116.893 48.1705V46.7288C117.771 46.7288 118.479 45.6411 118.164 44.763ZM126.018 35.7593H127.59V39.0226C127.905 38.6164 128.573 38.2756 129.517 38.2756C131.43 38.2756 132.793 39.6386 132.793 41.67C132.793 43.6883 131.43 45.0382 129.438 45.0382C127.525 45.0382 126.018 43.78 126.018 41.67V35.7593ZM131.221 41.6569C131.221 40.4381 130.5 39.7173 129.399 39.7173C128.311 39.7173 127.59 40.4381 127.59 41.6569C127.59 42.8757 128.311 43.5966 129.399 43.5966C130.5 43.5966 131.221 42.8757 131.221 41.6569ZM136.702 38.2887C138.733 38.2887 140.096 39.6517 140.096 41.6831V44.9333H138.524V44.3043C138.209 44.7106 137.541 45.0513 136.584 45.0513C134.684 45.0513 133.321 43.6883 133.321 41.6569C133.321 39.6386 134.684 38.2887 136.702 38.2887ZM138.524 41.67C138.524 40.4512 137.803 39.7304 136.715 39.7304C135.614 39.7304 134.893 40.4512 134.893 41.67C134.893 42.8888 135.614 43.6097 136.715 43.6097C137.803 43.6097 138.524 42.8888 138.524 41.67ZM140.877 41.2637C140.877 39.2717 142.135 38.2625 144.127 38.2625V39.7041C143.078 39.7041 142.449 40.2153 142.449 41.2637V44.9333H140.877V41.2637ZM145.772 41.67C145.772 42.8888 146.493 43.6097 147.581 43.6097C148.38 43.6097 148.97 43.2296 149.245 42.5612H150.884C150.53 44.0815 149.311 45.0513 147.594 45.0513C145.563 45.0513 144.2 43.6883 144.2 41.6569C144.2 39.6386 145.563 38.2887 147.594 38.2887C149.298 38.2887 150.53 39.2454 150.87 40.7395H149.232C148.957 40.0973 148.367 39.7304 147.581 39.7304C146.493 39.7304 145.772 40.4512 145.772 41.67ZM151.226 41.6569C151.226 39.6386 152.589 38.2887 154.621 38.2887C156.652 38.2887 158.002 39.6386 158.002 41.6569C158.002 43.6883 156.652 45.0513 154.621 45.0513C152.589 45.0513 151.226 43.6883 151.226 41.6569ZM152.799 41.67C152.799 42.8888 153.52 43.6097 154.608 43.6097C155.708 43.6097 156.429 42.8888 156.429 41.67C156.429 40.4512 155.708 39.7304 154.608 39.7304C153.52 39.7304 152.799 40.4512 152.799 41.67ZM163.75 35.7593H165.323V41.67C165.323 43.78 163.816 45.0382 161.889 45.0382C159.91 45.0382 158.547 43.6883 158.547 41.67C158.547 39.6386 159.91 38.2756 161.81 38.2756C162.754 38.2756 163.436 38.6164 163.75 39.0226V35.7593ZM160.12 41.6569C160.12 42.8757 160.841 43.5966 161.928 43.5966C163.029 43.5966 163.75 42.8757 163.75 41.6569C163.75 40.4381 163.029 39.7173 161.928 39.7173C160.841 39.7173 160.12 40.4381 160.12 41.6569ZM167.611 40.7395H170.901C170.625 40.0973 170.036 39.7304 169.249 39.7304C168.476 39.7304 167.886 40.0973 167.611 40.7395ZM169.249 43.6097C169.905 43.6097 170.416 43.3607 170.73 42.902H172.447C172.015 44.2256 170.848 45.0513 169.262 45.0513C167.231 45.0513 165.868 43.6883 165.868 41.6569C165.868 39.6386 167.231 38.2887 169.262 38.2887C171.294 38.2887 172.644 39.6386 172.644 41.6569C172.644 41.8404 172.631 42.0108 172.617 42.1811H167.493C167.663 43.0854 168.319 43.6097 169.249 43.6097ZM173.244 44.9333V35.7593H174.882V44.9333H173.244ZM175.663 44.9333V35.7593H179.818C181.823 35.7593 183.16 37.0961 183.16 39.1013C183.16 41.172 181.823 42.5088 179.818 42.5088H177.301V44.9333H175.663ZM179.674 41.0016C180.788 41.0016 181.521 40.2677 181.521 39.1537C181.521 38.0004 180.788 37.2665 179.674 37.2665H177.301V41.0016H179.674Z"/>
</mask>
<path d="M55.8682 44.9333V35.7593H60.0227C62.0279 35.7593 63.3647 37.0961 63.3647 39.1013C63.3647 41.172 62.0279 42.5088 60.0227 42.5088H57.5064V44.9333H55.8682ZM59.8786 41.0016C60.9925 41.0016 61.7265 40.2677 61.7265 39.1537C61.7265 38.0004 60.9925 37.2665 59.8786 37.2665H57.5064V41.0016H59.8786ZM63.5815 41.6569C63.5815 39.6386 64.9445 38.2887 66.9758 38.2887C69.0072 38.2887 70.3571 39.6386 70.3571 41.6569C70.3571 43.6883 69.0072 45.0513 66.9758 45.0513C64.9445 45.0513 63.5815 43.6883 63.5815 41.6569ZM65.1541 41.67C65.1541 42.8888 65.875 43.6097 66.9627 43.6097C68.0636 43.6097 68.7844 42.8888 68.7844 41.67C68.7844 40.4512 68.0636 39.7304 66.9627 39.7304C65.875 39.7304 65.1541 40.4512 65.1541 41.67ZM72.6192 44.9333L70.1422 38.3805H71.8329L73.4318 42.8233L75.0307 38.3805H76.7213L76.2364 39.6648L77.3635 42.8233L78.9624 38.3805H80.6531L78.1761 44.9333H76.5509L75.3976 41.8666L74.2443 44.9333H72.6192ZM82.2059 40.7395H85.4954C85.2202 40.0973 84.6305 39.7304 83.8441 39.7304C83.0709 39.7304 82.4811 40.0973 82.2059 40.7395ZM83.8441 43.6097C84.4994 43.6097 85.0105 43.3607 85.3251 42.902H87.0419C86.6094 44.2256 85.443 45.0513 83.8572 45.0513C81.8258 45.0513 80.4628 43.6883 80.4628 41.6569C80.4628 39.6386 81.8258 38.2887 83.8572 38.2887C85.8886 38.2887 87.2385 39.6386 87.2385 41.6569C87.2385 41.8404 87.2254 42.0108 87.2123 42.1811H82.0879C82.2583 43.0854 82.9136 43.6097 83.8441 43.6097ZM87.8391 41.2637C87.8391 39.2717 89.0973 38.2625 91.0893 38.2625V39.7041C90.0409 39.7041 89.4118 40.2153 89.4118 41.2637V44.9333H87.8391V41.2637ZM92.9183 40.7395H96.2079C95.9326 40.0973 95.3429 39.7304 94.5565 39.7304C93.7833 39.7304 93.1935 40.0973 92.9183 40.7395ZM94.5565 43.6097C95.2118 43.6097 95.723 43.3607 96.0375 42.902H97.7543C97.3219 44.2256 96.1554 45.0513 94.5696 45.0513C92.5383 45.0513 91.1752 43.6883 91.1752 41.6569C91.1752 39.6386 92.5383 38.2887 94.5696 38.2887C96.601 38.2887 97.9509 39.6386 97.9509 41.6569C97.9509 41.8404 97.9378 42.0108 97.9247 42.1811H92.8004C92.9707 43.0854 93.626 43.6097 94.5565 43.6097ZM103.699 35.7593H105.272V41.67C105.272 43.78 103.765 45.0382 101.838 45.0382C99.8591 45.0382 98.4961 43.6883 98.4961 41.67C98.4961 39.6386 99.8591 38.2756 101.759 38.2756C102.703 38.2756 103.385 38.6164 103.699 39.0226V35.7593ZM100.069 41.6569C100.069 42.8757 100.79 43.5966 101.877 43.5966C102.978 43.5966 103.699 42.8757 103.699 41.6569C103.699 40.4381 102.978 39.7173 101.877 39.7173C100.79 39.7173 100.069 40.4381 100.069 41.6569ZM109.354 35.7593H110.927V39.0226C111.241 38.6164 111.91 38.2756 112.853 38.2756C114.767 38.2756 116.13 39.6386 116.13 41.67C116.13 43.6883 114.767 45.0382 112.774 45.0382C110.861 45.0382 109.354 43.78 109.354 41.67V35.7593ZM114.557 41.6569C114.557 40.4381 113.836 39.7173 112.735 39.7173C111.647 39.7173 110.927 40.4381 110.927 41.6569C110.927 42.8757 111.647 43.5966 112.735 43.5966C113.836 43.5966 114.557 42.8757 114.557 41.6569ZM118.164 44.763L115.91 38.3805H117.548L119.121 42.9151L120.694 38.3805H122.332L120.012 44.9333C119.475 46.4667 119.095 48.1705 116.893 48.1705V46.7288C117.771 46.7288 118.479 45.6411 118.164 44.763ZM126.018 35.7593H127.59V39.0226C127.905 38.6164 128.573 38.2756 129.517 38.2756C131.43 38.2756 132.793 39.6386 132.793 41.67C132.793 43.6883 131.43 45.0382 129.438 45.0382C127.525 45.0382 126.018 43.78 126.018 41.67V35.7593ZM131.221 41.6569C131.221 40.4381 130.5 39.7173 129.399 39.7173C128.311 39.7173 127.59 40.4381 127.59 41.6569C127.59 42.8757 128.311 43.5966 129.399 43.5966C130.5 43.5966 131.221 42.8757 131.221 41.6569ZM136.702 38.2887C138.733 38.2887 140.096 39.6517 140.096 41.6831V44.9333H138.524V44.3043C138.209 44.7106 137.541 45.0513 136.584 45.0513C134.684 45.0513 133.321 43.6883 133.321 41.6569C133.321 39.6386 134.684 38.2887 136.702 38.2887ZM138.524 41.67C138.524 40.4512 137.803 39.7304 136.715 39.7304C135.614 39.7304 134.893 40.4512 134.893 41.67C134.893 42.8888 135.614 43.6097 136.715 43.6097C137.803 43.6097 138.524 42.8888 138.524 41.67ZM140.877 41.2637C140.877 39.2717 142.135 38.2625 144.127 38.2625V39.7041C143.078 39.7041 142.449 40.2153 142.449 41.2637V44.9333H140.877V41.2637ZM145.772 41.67C145.772 42.8888 146.493 43.6097 147.581 43.6097C148.38 43.6097 148.97 43.2296 149.245 42.5612H150.884C150.53 44.0815 149.311 45.0513 147.594 45.0513C145.563 45.0513 144.2 43.6883 144.2 41.6569C144.2 39.6386 145.563 38.2887 147.594 38.2887C149.298 38.2887 150.53 39.2454 150.87 40.7395H149.232C148.957 40.0973 148.367 39.7304 147.581 39.7304C146.493 39.7304 145.772 40.4512 145.772 41.67ZM151.226 41.6569C151.226 39.6386 152.589 38.2887 154.621 38.2887C156.652 38.2887 158.002 39.6386 158.002 41.6569C158.002 43.6883 156.652 45.0513 154.621 45.0513C152.589 45.0513 151.226 43.6883 151.226 41.6569ZM152.799 41.67C152.799 42.8888 153.52 43.6097 154.608 43.6097C155.708 43.6097 156.429 42.8888 156.429 41.67C156.429 40.4512 155.708 39.7304 154.608 39.7304C153.52 39.7304 152.799 40.4512 152.799 41.67ZM163.75 35.7593H165.323V41.67C165.323 43.78 163.816 45.0382 161.889 45.0382C159.91 45.0382 158.547 43.6883 158.547 41.67C158.547 39.6386 159.91 38.2756 161.81 38.2756C162.754 38.2756 163.436 38.6164 163.75 39.0226V35.7593ZM160.12 41.6569C160.12 42.8757 160.841 43.5966 161.928 43.5966C163.029 43.5966 163.75 42.8757 163.75 41.6569C163.75 40.4381 163.029 39.7173 161.928 39.7173C160.841 39.7173 160.12 40.4381 160.12 41.6569ZM167.611 40.7395H170.901C170.625 40.0973 170.036 39.7304 169.249 39.7304C168.476 39.7304 167.886 40.0973 167.611 40.7395ZM169.249 43.6097C169.905 43.6097 170.416 43.3607 170.73 42.902H172.447C172.015 44.2256 170.848 45.0513 169.262 45.0513C167.231 45.0513 165.868 43.6883 165.868 41.6569C165.868 39.6386 167.231 38.2887 169.262 38.2887C171.294 38.2887 172.644 39.6386 172.644 41.6569C172.644 41.8404 172.631 42.0108 172.617 42.1811H167.493C167.663 43.0854 168.319 43.6097 169.249 43.6097ZM173.244 44.9333V35.7593H174.882V44.9333H173.244ZM175.663 44.9333V35.7593H179.818C181.823 35.7593 183.16 37.0961 183.16 39.1013C183.16 41.172 181.823 42.5088 179.818 42.5088H177.301V44.9333H175.663ZM179.674 41.0016C180.788 41.0016 181.521 40.2677 181.521 39.1537C181.521 38.0004 180.788 37.2665 179.674 37.2665H177.301V41.0016H179.674Z" fill="white"/>
<path d="M55.8682 44.9333H55.5874V45.2142H55.8682V44.9333ZM55.8682 35.7593V35.4785H55.5874V35.7593H55.8682ZM57.5064 42.5088V42.2279H57.2256V42.5088H57.5064ZM57.5064 44.9333V45.2142H57.7873V44.9333H57.5064ZM57.5064 37.2665V36.9856H57.2256V37.2665H57.5064ZM57.5064 41.0016H57.2256V41.2825H57.5064V41.0016ZM55.8682 44.9333H56.149V35.7593H55.8682H55.5874V44.9333H55.8682ZM55.8682 35.7593V36.0401H60.0227V35.7593V35.4785H55.8682V35.7593ZM60.0227 35.7593V36.0401C60.9615 36.0401 61.722 36.3518 62.2471 36.8769C62.7722 37.402 63.0839 38.1625 63.0839 39.1013H63.3647H63.6455C63.6455 38.0349 63.2888 37.1244 62.6442 36.4798C61.9996 35.8352 61.0891 35.4785 60.0227 35.4785V35.7593ZM63.3647 39.1013H63.0839C63.0839 40.0752 62.7706 40.8521 62.2457 41.3844C61.721 41.9164 60.9614 42.2279 60.0227 42.2279V42.5088V42.7896C61.0892 42.7896 62.0006 42.4328 62.6456 41.7787C63.2904 41.125 63.6455 40.1981 63.6455 39.1013H63.3647ZM60.0227 42.5088V42.2279H57.5064V42.5088V42.7896H60.0227V42.5088ZM57.5064 42.5088H57.2256V44.9333H57.5064H57.7873V42.5088H57.5064ZM57.5064 44.9333V44.6525H55.8682V44.9333V45.2142H57.5064V44.9333ZM59.8786 41.0016V41.2825C60.4985 41.2825 61.0358 41.077 61.4188 40.694C61.8019 40.311 62.0073 39.7737 62.0073 39.1537H61.7265H61.4456C61.4456 39.6477 61.2841 40.0344 61.0217 40.2968C60.7592 40.5593 60.3726 40.7208 59.8786 40.7208V41.0016ZM61.7265 39.1537H62.0073C62.0073 38.5166 61.8035 37.9695 61.4203 37.5805C61.0369 37.1912 60.4986 36.9856 59.8786 36.9856V37.2665V37.5473C60.3725 37.5473 60.7582 37.7087 61.0202 37.9747C61.2825 38.241 61.4456 38.6375 61.4456 39.1537H61.7265ZM59.8786 37.2665V36.9856H57.5064V37.2665V37.5473H59.8786V37.2665ZM57.5064 37.2665H57.2256V41.0016H57.5064H57.7873V37.2665H57.5064ZM57.5064 41.0016V41.2825H59.8786V41.0016V40.7208H57.5064V41.0016ZM63.5815 41.6569H63.8623C63.8623 40.7126 64.1799 39.9457 64.7146 39.4154C65.2496 38.8848 66.0236 38.5696 66.9758 38.5696V38.2887V38.0079C65.8967 38.0079 64.9735 38.3676 64.3191 39.0166C63.6646 39.6657 63.3006 40.5829 63.3006 41.6569H63.5815ZM66.9758 38.2887V38.5696C67.928 38.5696 68.6984 38.8847 69.23 39.4148C69.7615 39.9449 70.0763 40.7118 70.0763 41.6569H70.3571H70.638C70.638 40.5837 70.2778 39.6666 69.6266 39.0171C68.9754 38.3677 68.0551 38.0079 66.9758 38.0079V38.2887ZM70.3571 41.6569H70.0763C70.0763 42.6091 69.7611 43.3829 69.2291 43.9178C68.6973 44.4526 67.9272 44.7705 66.9758 44.7705V45.0513V45.3321C68.0559 45.3321 68.9764 44.9685 69.6274 44.3139C70.2782 43.6595 70.638 42.7361 70.638 41.6569H70.3571ZM66.9758 45.0513V44.7705C66.0244 44.7705 65.2507 44.4525 64.7155 43.9173C64.1803 43.3821 63.8623 42.6083 63.8623 41.6569H63.5815H63.3006C63.3006 42.7369 63.6641 43.6603 64.3183 44.3145C64.9724 44.9686 65.8959 45.3321 66.9758 45.3321V45.0513ZM65.1541 41.67H64.8733C64.8733 42.3346 65.0706 42.8946 65.447 43.2904C65.8246 43.6876 66.355 43.8905 66.9627 43.8905V43.6097V43.3288C66.4827 43.3288 66.1088 43.1713 65.8541 42.9034C65.598 42.6341 65.435 42.2243 65.435 41.67H65.1541ZM66.9627 43.6097V43.8905C67.5761 43.8905 68.1098 43.6882 68.4895 43.2909C68.8679 42.8949 69.0653 42.3346 69.0653 41.67H68.7844H68.5036C68.5036 42.2243 68.3406 42.6338 68.0834 42.9029C67.8274 43.1708 67.4503 43.3288 66.9627 43.3288V43.6097ZM68.7844 41.67H69.0653C69.0653 41.0055 68.8679 40.4451 68.4895 40.0491C68.1098 39.6519 67.5761 39.4495 66.9627 39.4495V39.7304V40.0112C67.4503 40.0112 67.8274 40.1693 68.0834 40.4372C68.3406 40.7063 68.5036 41.1157 68.5036 41.67H68.7844ZM66.9627 39.7304V39.4495C66.355 39.4495 65.8246 39.6524 65.447 40.0496C65.0706 40.4455 64.8733 41.0055 64.8733 41.67H65.1541H65.435C65.435 41.1157 65.598 40.7059 65.8541 40.4366C66.1088 40.1687 66.4827 40.0112 66.9627 40.0112V39.7304ZM72.6192 44.9333L72.3565 45.0326L72.4251 45.2142H72.6192V44.9333ZM70.1422 38.3805V38.0996H69.7358L69.8795 38.4798L70.1422 38.3805ZM71.8329 38.3805L72.0971 38.2854L72.0303 38.0996H71.8329V38.3805ZM73.4318 42.8233L73.1675 42.9184L73.4318 43.6527L73.696 42.9184L73.4318 42.8233ZM75.0307 38.3805V38.0996H74.8333L74.7664 38.2854L75.0307 38.3805ZM76.7213 38.3805L76.9841 38.4797L77.1275 38.0996H76.7213V38.3805ZM76.2364 39.6648L75.9737 39.5656L75.9373 39.6621L75.9719 39.7592L76.2364 39.6648ZM77.3635 42.8233L77.099 42.9177L77.3624 43.6558L77.6278 42.9184L77.3635 42.8233ZM78.9624 38.3805V38.0996H78.765L78.6982 38.2854L78.9624 38.3805ZM80.6531 38.3805L80.9158 38.4798L81.0594 38.0996H80.6531V38.3805ZM78.1761 44.9333V45.2142H78.3701L78.4388 45.0326L78.1761 44.9333ZM76.5509 44.9333L76.2881 45.0322L76.3565 45.2142H76.5509V44.9333ZM75.3976 41.8666L75.6605 41.7677L75.3976 41.0688L75.1348 41.7677L75.3976 41.8666ZM74.2443 44.9333V45.2142H74.4388L74.5072 45.0322L74.2443 44.9333ZM72.6192 44.9333L72.8819 44.8341L70.4049 38.2812L70.1422 38.3805L69.8795 38.4798L72.3565 45.0326L72.6192 44.9333ZM70.1422 38.3805V38.6613H71.8329V38.3805V38.0996H70.1422V38.3805ZM71.8329 38.3805L71.5686 38.4756L73.1675 42.9184L73.4318 42.8233L73.696 42.7282L72.0971 38.2854L71.8329 38.3805ZM73.4318 42.8233L73.696 42.9184L75.2949 38.4756L75.0307 38.3805L74.7664 38.2854L73.1675 42.7282L73.4318 42.8233ZM75.0307 38.3805V38.6613H76.7213V38.3805V38.0996H75.0307V38.3805ZM76.7213 38.3805L76.4586 38.2813L75.9737 39.5656L76.2364 39.6648L76.4991 39.764L76.9841 38.4797L76.7213 38.3805ZM76.2364 39.6648L75.9719 39.7592L77.099 42.9177L77.3635 42.8233L77.628 42.7289L76.5009 39.5704L76.2364 39.6648ZM77.3635 42.8233L77.6278 42.9184L79.2267 38.4756L78.9624 38.3805L78.6982 38.2854L77.0993 42.7282L77.3635 42.8233ZM78.9624 38.3805V38.6613H80.6531V38.3805V38.0996H78.9624V38.3805ZM80.6531 38.3805L80.3904 38.2812L77.9134 44.8341L78.1761 44.9333L78.4388 45.0326L80.9158 38.4798L80.6531 38.3805ZM78.1761 44.9333V44.6525H76.5509V44.9333V45.2142H78.1761V44.9333ZM76.5509 44.9333L76.8138 44.8345L75.6605 41.7677L75.3976 41.8666L75.1348 41.9655L76.2881 45.0322L76.5509 44.9333ZM75.3976 41.8666L75.1348 41.7677L73.9815 44.8345L74.2443 44.9333L74.5072 45.0322L75.6605 41.9655L75.3976 41.8666ZM74.2443 44.9333V44.6525H72.6192V44.9333V45.2142H74.2443V44.9333ZM82.2059 40.7395L81.9478 40.6289L81.78 41.0203H82.2059V40.7395ZM85.4954 40.7395V41.0203H85.9213L85.7536 40.6289L85.4954 40.7395ZM85.3251 42.902V42.6211H85.1771L85.0934 42.7431L85.3251 42.902ZM87.0419 42.902L87.3089 42.9892L87.4291 42.6211H87.0419V42.902ZM87.2123 42.1811V42.462H87.4724L87.4923 42.2027L87.2123 42.1811ZM82.0879 42.1811V41.9003H81.7492L81.8119 42.2331L82.0879 42.1811ZM82.2059 40.7395V41.0203H85.4954V40.7395V40.4587H82.2059V40.7395ZM85.4954 40.7395L85.7536 40.6289C85.4285 39.8705 84.728 39.4495 83.8441 39.4495V39.7304V40.0112C84.5329 40.0112 85.0119 40.3242 85.2373 40.8501L85.4954 40.7395ZM83.8441 39.7304V39.4495C82.9721 39.4495 82.2723 39.8715 81.9478 40.6289L82.2059 40.7395L82.464 40.8501C82.6899 40.3232 83.1696 40.0112 83.8441 40.0112V39.7304ZM83.8441 43.6097V43.8905C84.5757 43.8905 85.1812 43.6083 85.5567 43.0608L85.3251 42.902L85.0934 42.7431C84.8398 43.113 84.4231 43.3288 83.8441 43.3288V43.6097ZM85.3251 42.902V43.1828H87.0419V42.902V42.6211H85.3251V42.902ZM87.0419 42.902L86.775 42.8147C86.3841 44.011 85.3346 44.7705 83.8572 44.7705V45.0513V45.3321C85.5514 45.3321 86.8347 44.4403 87.3089 42.9892L87.0419 42.902ZM83.8572 45.0513V44.7705C82.9058 44.7705 82.132 44.4525 81.5968 43.9173C81.0616 43.3821 80.7437 42.6083 80.7437 41.6569H80.4628H80.182C80.182 42.7369 80.5455 43.6603 81.1997 44.3145C81.8538 44.9686 82.7772 45.3321 83.8572 45.3321V45.0513ZM80.4628 41.6569H80.7437C80.7437 40.7126 81.0612 39.9457 81.596 39.4154C82.131 38.8848 82.905 38.5696 83.8572 38.5696V38.2887V38.0079C82.778 38.0079 81.8548 38.3676 81.2005 39.0166C80.5459 39.6657 80.182 40.5829 80.182 41.6569H80.4628ZM83.8572 38.2887V38.5696C84.8093 38.5696 85.5797 38.8847 86.1113 39.4148C86.6429 39.9449 86.9577 40.7118 86.9577 41.6569H87.2385H87.5193C87.5193 40.5837 87.1592 39.6666 86.5079 39.0171C85.8567 38.3677 84.9365 38.0079 83.8572 38.0079V38.2887ZM87.2385 41.6569H86.9577C86.9577 41.828 86.9455 41.988 86.9323 42.1596L87.2123 42.1811L87.4923 42.2027C87.5053 42.0335 87.5193 41.8528 87.5193 41.6569H87.2385ZM87.2123 42.1811V41.9003H82.0879V42.1811V42.462H87.2123V42.1811ZM82.0879 42.1811L81.8119 42.2331C81.9077 42.7416 82.1443 43.1613 82.5042 43.4528C82.8635 43.7437 83.3254 43.8905 83.8441 43.8905V43.6097V43.3288C83.4323 43.3288 83.1013 43.2135 82.8577 43.0163C82.6148 42.8196 82.4385 42.525 82.3639 42.1291L82.0879 42.1811ZM91.0893 38.2625H91.3702V37.9817H91.0893V38.2625ZM91.0893 39.7041V39.985H91.3702V39.7041H91.0893ZM89.4118 44.9333V45.2142H89.6926V44.9333H89.4118ZM87.8391 44.9333H87.5583V45.2142H87.8391V44.9333ZM87.8391 41.2637H88.12C88.12 40.3293 88.4128 39.6627 88.9039 39.2259C89.4001 38.7845 90.1373 38.5433 91.0893 38.5433V38.2625V37.9817C90.0493 37.9817 89.1614 38.2451 88.5305 38.8063C87.8945 39.3721 87.5583 40.2061 87.5583 41.2637H87.8391ZM91.0893 38.2625H90.8085V39.7041H91.0893H91.3702V38.2625H91.0893ZM91.0893 39.7041V39.4233C90.5236 39.4233 90.0271 39.561 89.6698 39.8818C89.3073 40.2072 89.131 40.6821 89.131 41.2637H89.4118H89.6926C89.6926 40.7969 89.8308 40.492 90.045 40.2997C90.2644 40.1028 90.6067 39.985 91.0893 39.985V39.7041ZM89.4118 41.2637H89.131V44.9333H89.4118H89.6926V41.2637H89.4118ZM89.4118 44.9333V44.6525H87.8391V44.9333V45.2142H89.4118V44.9333ZM87.8391 44.9333H88.12V41.2637H87.8391H87.5583V44.9333H87.8391ZM92.9183 40.7395L92.6602 40.6289L92.4924 41.0203H92.9183V40.7395ZM96.2079 40.7395V41.0203H96.6338L96.466 40.6289L96.2079 40.7395ZM96.0375 42.902V42.6211H95.8895L95.8059 42.7431L96.0375 42.902ZM97.7543 42.902L98.0213 42.9892L98.1416 42.6211H97.7543V42.902ZM97.9247 42.1811V42.462H98.1848L98.2047 42.2027L97.9247 42.1811ZM92.8004 42.1811V41.9003H92.4617L92.5244 42.2331L92.8004 42.1811ZM92.9183 40.7395V41.0203H96.2079V40.7395V40.4587H92.9183V40.7395ZM96.2079 40.7395L96.466 40.6289C96.141 39.8705 95.4404 39.4495 94.5565 39.4495V39.7304V40.0112C95.2454 40.0112 95.7243 40.3242 95.9497 40.8501L96.2079 40.7395ZM94.5565 39.7304V39.4495C93.6846 39.4495 92.9848 39.8715 92.6602 40.6289L92.9183 40.7395L93.1764 40.8501C93.4023 40.3232 93.882 40.0112 94.5565 40.0112V39.7304ZM94.5565 43.6097V43.8905C95.2882 43.8905 95.8936 43.6083 96.2691 43.0608L96.0375 42.902L95.8059 42.7431C95.5523 43.113 95.1355 43.3288 94.5565 43.3288V43.6097ZM96.0375 42.902V43.1828H97.7543V42.902V42.6211H96.0375V42.902ZM97.7543 42.902L97.4874 42.8147C97.0966 44.011 96.047 44.7705 94.5696 44.7705V45.0513V45.3321C96.2638 45.3321 97.5472 44.4403 98.0213 42.9892L97.7543 42.902ZM94.5696 45.0513V44.7705C93.6182 44.7705 92.8445 44.4525 92.3093 43.9173C91.7741 43.3821 91.4561 42.6083 91.4561 41.6569H91.1752H90.8944C90.8944 42.7369 91.2579 43.6603 91.9121 44.3145C92.5662 44.9686 93.4897 45.3321 94.5696 45.3321V45.0513ZM91.1752 41.6569H91.4561C91.4561 40.7126 91.7736 39.9457 92.3084 39.4154C92.8434 38.8848 93.6174 38.5696 94.5696 38.5696V38.2887V38.0079C93.4905 38.0079 92.5673 38.3676 91.9129 39.0166C91.2584 39.6657 90.8944 40.5829 90.8944 41.6569H91.1752ZM94.5696 38.2887V38.5696C95.5218 38.5696 96.2922 38.8847 96.8238 39.4148C97.3553 39.9449 97.6701 40.7118 97.6701 41.6569H97.9509H98.2318C98.2318 40.5837 97.8716 39.6666 97.2204 39.0171C96.5692 38.3677 95.6489 38.0079 94.5696 38.0079V38.2887ZM97.9509 41.6569H97.6701C97.6701 41.828 97.6579 41.988 97.6447 42.1596L97.9247 42.1811L98.2047 42.2027C98.2177 42.0335 98.2318 41.8528 98.2318 41.6569H97.9509ZM97.9247 42.1811V41.9003H92.8004V42.1811V42.462H97.9247V42.1811ZM92.8004 42.1811L92.5244 42.2331C92.6202 42.7416 92.8567 43.1613 93.2167 43.4528C93.576 43.7437 94.0379 43.8905 94.5565 43.8905V43.6097V43.3288C94.1447 43.3288 93.8137 43.2135 93.5701 43.0163C93.3272 42.8196 93.1509 42.525 93.0763 42.1291L92.8004 42.1811ZM103.699 35.7593V35.4785H103.418V35.7593H103.699ZM105.272 35.7593H105.553V35.4785H105.272V35.7593ZM103.699 39.0226L103.477 39.1946L103.98 39.8441V39.0226H103.699ZM103.699 35.7593V36.0401H105.272V35.7593V35.4785H103.699V35.7593ZM105.272 35.7593H104.991V41.67H105.272H105.553V35.7593H105.272ZM105.272 41.67H104.991C104.991 42.6545 104.641 43.4199 104.085 43.9404C103.527 44.4632 102.741 44.7574 101.838 44.7574V45.0382V45.319C102.862 45.319 103.792 44.9841 104.469 44.3504C105.149 43.7143 105.553 42.7956 105.553 41.67H105.272ZM101.838 45.0382V44.7574C100.914 44.7574 100.153 44.4434 99.6238 43.9127C99.0946 43.382 98.7769 42.6144 98.7769 41.67H98.4961H98.2152C98.2152 42.7439 98.5791 43.6605 99.2261 44.3093C99.873 44.958 100.783 45.319 101.838 45.319V45.0382ZM98.4961 41.67H98.7769C98.7769 40.7184 99.0951 39.9429 99.6164 39.4068C100.137 38.8711 100.878 38.5565 101.759 38.5565V38.2756V37.9948C100.74 37.9948 99.8493 38.3617 99.2138 39.0153C98.5785 39.6685 98.2152 40.5902 98.2152 41.67H98.4961ZM101.759 38.2756V38.5565C102.644 38.5565 103.231 38.8763 103.477 39.1946L103.699 39.0226L103.921 38.8507C103.538 38.3564 102.762 37.9948 101.759 37.9948V38.2756ZM103.699 39.0226H103.98V35.7593H103.699H103.418V39.0226H103.699ZM100.069 41.6569H99.7879C99.7879 42.3215 99.9853 42.8815 100.362 43.2773C100.739 43.6745 101.27 43.8774 101.877 43.8774V43.5966V43.3157C101.397 43.3157 101.023 43.1582 100.769 42.8903C100.513 42.621 100.35 42.2112 100.35 41.6569H100.069ZM101.877 43.5966V43.8774C102.491 43.8774 103.024 43.6751 103.404 43.2778C103.783 42.8818 103.98 42.3215 103.98 41.6569H103.699H103.418C103.418 42.2112 103.255 42.6207 102.998 42.8898C102.742 43.1576 102.365 43.3157 101.877 43.3157V43.5966ZM103.699 41.6569H103.98C103.98 40.9923 103.783 40.432 103.404 40.036C103.024 39.6387 102.491 39.4364 101.877 39.4364V39.7173V39.9981C102.365 39.9981 102.742 40.1562 102.998 40.424C103.255 40.6931 103.418 41.1026 103.418 41.6569H103.699ZM101.877 39.7173V39.4364C101.27 39.4364 100.739 39.6393 100.362 40.0365C99.9853 40.4324 99.7879 40.9924 99.7879 41.6569H100.069H100.35C100.35 41.1026 100.513 40.6928 100.769 40.4235C101.023 40.1556 101.397 39.9981 101.877 39.9981V39.7173ZM109.354 35.7593V35.4785H109.073V35.7593H109.354ZM110.927 35.7593H111.207V35.4785H110.927V35.7593ZM110.927 39.0226H110.646V39.8441L111.149 39.1946L110.927 39.0226ZM109.354 35.7593V36.0401H110.927V35.7593V35.4785H109.354V35.7593ZM110.927 35.7593H110.646V39.0226H110.927H111.207V35.7593H110.927ZM110.927 39.0226L111.149 39.1946C111.396 38.8753 111.97 38.5565 112.853 38.5565V38.2756V37.9948C111.849 37.9948 111.086 38.3575 110.705 38.8507L110.927 39.0226ZM112.853 38.2756V38.5565C113.741 38.5565 114.485 38.8714 115.008 39.4071C115.531 39.9431 115.849 40.7184 115.849 41.67H116.13H116.41C116.41 40.5902 116.047 39.6683 115.41 39.015C114.772 38.3613 113.879 37.9948 112.853 37.9948V38.2756ZM116.13 41.67H115.849C115.849 42.6144 115.531 43.3818 115 43.9124C114.47 44.4431 113.706 44.7574 112.774 44.7574V45.0382V45.319C113.835 45.319 114.749 44.9584 115.398 44.3095C116.047 43.6606 116.41 42.744 116.41 41.67H116.13ZM112.774 45.0382V44.7574C111.879 44.7574 111.096 44.4635 110.539 43.9406C109.984 43.42 109.635 42.6545 109.635 41.67H109.354H109.073C109.073 42.7955 109.477 43.7141 110.154 44.3501C110.829 44.9838 111.757 45.319 112.774 45.319V45.0382ZM109.354 41.67H109.635V35.7593H109.354H109.073V41.67H109.354ZM114.557 41.6569H114.838C114.838 40.9923 114.64 40.432 114.262 40.036C113.882 39.6387 113.349 39.4364 112.735 39.4364V39.7173V39.9981C113.223 39.9981 113.6 40.1562 113.856 40.424C114.113 40.6931 114.276 41.1026 114.276 41.6569H114.557ZM112.735 39.7173V39.4364C112.127 39.4364 111.597 39.6393 111.219 40.0365C110.843 40.4324 110.646 40.9924 110.646 41.6569H110.927H111.207C111.207 41.1026 111.37 40.6928 111.626 40.4235C111.881 40.1556 112.255 39.9981 112.735 39.9981V39.7173ZM110.927 41.6569H110.646C110.646 42.3215 110.843 42.8815 111.219 43.2773C111.597 43.6745 112.127 43.8774 112.735 43.8774V43.5966V43.3157C112.255 43.3157 111.881 43.1582 111.626 42.8903C111.37 42.621 111.207 42.2112 111.207 41.6569H110.927ZM112.735 43.5966V43.8774C113.349 43.8774 113.882 43.6751 114.262 43.2778C114.64 42.8818 114.838 42.3215 114.838 41.6569H114.557H114.276C114.276 42.2112 114.113 42.6207 113.856 42.8898C113.6 43.1576 113.223 43.3157 112.735 43.3157V43.5966ZM118.164 44.763L117.899 44.8565L117.9 44.8577L118.164 44.763ZM115.91 38.3805V38.0996H115.513L115.645 38.474L115.91 38.3805ZM117.548 38.3805L117.814 38.2884L117.748 38.0996H117.548V38.3805ZM119.121 42.9151L118.856 43.0071L119.121 43.7721L119.386 43.0071L119.121 42.9151ZM120.694 38.3805V38.0996H120.494L120.428 38.2884L120.694 38.3805ZM122.332 38.3805L122.597 38.4742L122.729 38.0996H122.332V38.3805ZM120.012 44.9333L119.747 44.8396L119.747 44.8405L120.012 44.9333ZM116.893 48.1705H116.612V48.4513H116.893V48.1705ZM116.893 46.7288V46.448H116.612V46.7288H116.893ZM118.164 44.763L118.429 44.6694L116.175 38.2869L115.91 38.3805L115.645 38.474L117.899 44.8565L118.164 44.763ZM115.91 38.3805V38.6613H117.548V38.3805V38.0996H115.91V38.3805ZM117.548 38.3805L117.283 38.4725L118.856 43.0071L119.121 42.9151L119.386 42.823L117.814 38.2884L117.548 38.3805ZM119.121 42.9151L119.386 43.0071L120.959 38.4725L120.694 38.3805L120.428 38.2884L118.856 42.823L119.121 42.9151ZM120.694 38.3805V38.6613H122.332V38.3805V38.0996H120.694V38.3805ZM122.332 38.3805L122.067 38.2867L119.747 44.8396L120.012 44.9333L120.277 45.0271L122.597 38.4742L122.332 38.3805ZM120.012 44.9333L119.747 44.8405C119.469 45.6349 119.255 46.3887 118.848 46.9646C118.65 47.2441 118.411 47.4717 118.104 47.6311C117.797 47.7906 117.406 47.8896 116.893 47.8896V48.1705V48.4513C117.48 48.4513 117.963 48.3374 118.363 48.1295C118.764 47.9215 119.066 47.6274 119.306 47.2892C119.773 46.6299 120.018 45.7652 120.277 45.0262L120.012 44.9333ZM116.893 48.1705H117.174V46.7288H116.893H116.612V48.1705H116.893ZM116.893 46.7288V47.0097C117.452 47.0097 117.927 46.6664 118.212 46.2279C118.497 45.7881 118.621 45.2056 118.429 44.6683L118.164 44.763L117.9 44.8577C118.022 45.1984 117.95 45.5989 117.74 45.9225C117.53 46.2474 117.212 46.448 116.893 46.448V46.7288ZM126.018 35.7593V35.4785H125.737V35.7593H126.018ZM127.59 35.7593H127.871V35.4785H127.59V35.7593ZM127.59 39.0226H127.31V39.8441L127.812 39.1946L127.59 39.0226ZM126.018 35.7593V36.0401H127.59V35.7593V35.4785H126.018V35.7593ZM127.59 35.7593H127.31V39.0226H127.59H127.871V35.7593H127.59ZM127.59 39.0226L127.812 39.1946C128.06 38.8753 128.634 38.5565 129.517 38.5565V38.2756V37.9948C128.513 37.9948 127.75 38.3575 127.368 38.8507L127.59 39.0226ZM129.517 38.2756V38.5565C130.405 38.5565 131.149 38.8714 131.672 39.4071C132.194 39.9431 132.513 40.7184 132.513 41.67H132.793H133.074C133.074 40.5902 132.711 39.6683 132.074 39.015C131.436 38.3613 130.542 37.9948 129.517 37.9948V38.2756ZM132.793 41.67H132.513C132.513 42.6144 132.195 43.3818 131.664 43.9124C131.134 44.4431 130.369 44.7574 129.438 44.7574V45.0382V45.319C130.499 45.319 131.413 44.9584 132.061 44.3095C132.71 43.6606 133.074 42.744 133.074 41.67H132.793ZM129.438 45.0382V44.7574C128.543 44.7574 127.76 44.4635 127.203 43.9406C126.648 43.42 126.299 42.6545 126.299 41.67H126.018H125.737C125.737 42.7955 126.141 43.7141 126.818 44.3501C127.493 44.9838 128.42 45.319 129.438 45.319V45.0382ZM126.018 41.67H126.299V35.7593H126.018H125.737V41.67H126.018ZM131.221 41.6569H131.501C131.501 40.9923 131.304 40.432 130.926 40.036C130.546 39.6387 130.012 39.4364 129.399 39.4364V39.7173V39.9981C129.886 39.9981 130.264 40.1562 130.52 40.424C130.777 40.6931 130.94 41.1026 130.94 41.6569H131.221ZM129.399 39.7173V39.4364C128.791 39.4364 128.261 39.6393 127.883 40.0365C127.507 40.4324 127.31 40.9924 127.31 41.6569H127.59H127.871C127.871 41.1026 128.034 40.6928 128.29 40.4235C128.545 40.1556 128.919 39.9981 129.399 39.9981V39.7173ZM127.59 41.6569H127.31C127.31 42.3215 127.507 42.8815 127.883 43.2773C128.261 43.6745 128.791 43.8774 129.399 43.8774V43.5966V43.3157C128.919 43.3157 128.545 43.1582 128.29 42.8903C128.034 42.621 127.871 42.2112 127.871 41.6569H127.59ZM129.399 43.5966V43.8774C130.012 43.8774 130.546 43.6751 130.926 43.2778C131.304 42.8818 131.501 42.3215 131.501 41.6569H131.221H130.94C130.94 42.2112 130.777 42.6207 130.52 42.8898C130.264 43.1576 129.886 43.3157 129.399 43.3157V43.5966ZM140.096 44.9333V45.2142H140.377V44.9333H140.096ZM138.524 44.9333H138.243V45.2142H138.524V44.9333ZM138.524 44.3043H138.805V43.4828L138.302 44.1324L138.524 44.3043ZM136.702 38.2887V38.5696C137.653 38.5696 138.427 38.8875 138.962 39.4227C139.498 39.9579 139.816 40.7317 139.816 41.6831H140.096H140.377C140.377 40.6031 140.014 39.6797 139.36 39.0256C138.705 38.3714 137.782 38.0079 136.702 38.0079V38.2887ZM140.096 41.6831H139.816V44.9333H140.096H140.377V41.6831H140.096ZM140.096 44.9333V44.6525H138.524V44.9333V45.2142H140.096V44.9333ZM138.524 44.9333H138.805V44.3043H138.524H138.243V44.9333H138.524ZM138.524 44.3043L138.302 44.1324C138.055 44.4511 137.481 44.7705 136.584 44.7705V45.0513V45.3321C137.601 45.3321 138.364 44.97 138.746 44.4762L138.524 44.3043ZM136.584 45.0513V44.7705C135.703 44.7705 134.962 44.4559 134.441 43.9201C133.92 43.384 133.602 42.6085 133.602 41.6569H133.321H133.04C133.04 42.7367 133.403 43.6584 134.038 44.3117C134.674 44.9653 135.565 45.3321 136.584 45.3321V45.0513ZM133.321 41.6569H133.602C133.602 40.7126 133.919 39.9455 134.453 39.4151C134.986 38.8845 135.757 38.5696 136.702 38.5696V38.2887V38.0079C135.629 38.0079 134.709 38.3679 134.057 39.0168C133.404 39.6659 133.04 40.5829 133.04 41.6569H133.321ZM138.524 41.67H138.805C138.805 41.0055 138.607 40.4455 138.231 40.0496C137.853 39.6524 137.323 39.4495 136.715 39.4495V39.7304V40.0112C137.195 40.0112 137.569 40.1687 137.824 40.4366C138.08 40.7059 138.243 41.1157 138.243 41.67H138.524ZM136.715 39.7304V39.4495C136.102 39.4495 135.568 39.6519 135.188 40.0491C134.81 40.4451 134.613 41.0055 134.613 41.67H134.893H135.174C135.174 41.1157 135.337 40.7063 135.594 40.4372C135.851 40.1693 136.228 40.0112 136.715 40.0112V39.7304ZM134.893 41.67H134.613C134.613 42.3346 134.81 42.8949 135.188 43.2909C135.568 43.6882 136.102 43.8905 136.715 43.8905V43.6097V43.3288C136.228 43.3288 135.851 43.1708 135.594 42.9029C135.337 42.6338 135.174 42.2243 135.174 41.67H134.893ZM136.715 43.6097V43.8905C137.323 43.8905 137.853 43.6876 138.231 43.2904C138.607 42.8946 138.805 42.3346 138.805 41.67H138.524H138.243C138.243 42.2243 138.08 42.6341 137.824 42.9034C137.569 43.1713 137.195 43.3288 136.715 43.3288V43.6097ZM144.127 38.2625H144.408V37.9817H144.127V38.2625ZM144.127 39.7041V39.985H144.408V39.7041H144.127ZM142.449 44.9333V45.2142H142.73V44.9333H142.449ZM140.877 44.9333H140.596V45.2142H140.877V44.9333ZM140.877 41.2637H141.157C141.157 40.3293 141.45 39.6627 141.941 39.2259C142.437 38.7845 143.175 38.5433 144.127 38.5433V38.2625V37.9817C143.087 37.9817 142.199 38.2451 141.568 38.8063C140.932 39.3721 140.596 40.2061 140.596 41.2637H140.877ZM144.127 38.2625H143.846V39.7041H144.127H144.408V38.2625H144.127ZM144.127 39.7041V39.4233C143.561 39.4233 143.065 39.561 142.707 39.8818C142.345 40.2072 142.168 40.6821 142.168 41.2637H142.449H142.73C142.73 40.7969 142.868 40.492 143.082 40.2997C143.302 40.1028 143.644 39.985 144.127 39.985V39.7041ZM142.449 41.2637H142.168V44.9333H142.449H142.73V41.2637H142.449ZM142.449 44.9333V44.6525H140.877V44.9333V45.2142H142.449V44.9333ZM140.877 44.9333H141.157V41.2637H140.877H140.596V44.9333H140.877ZM149.245 42.5612V42.2804H149.057L148.986 42.4543L149.245 42.5612ZM150.884 42.5612L151.157 42.6249L151.237 42.2804H150.884V42.5612ZM150.87 40.7395V41.0203H151.223L151.144 40.6771L150.87 40.7395ZM149.232 40.7395L148.974 40.8501L149.047 41.0203H149.232V40.7395ZM145.772 41.67H145.491C145.491 42.3346 145.689 42.8946 146.065 43.2904C146.443 43.6876 146.973 43.8905 147.581 43.8905V43.6097V43.3288C147.101 43.3288 146.727 43.1713 146.472 42.9034C146.216 42.6341 146.053 42.2243 146.053 41.67H145.772ZM147.581 43.6097V43.8905C148.483 43.8905 149.182 43.4521 149.505 42.6681L149.245 42.5612L148.986 42.4543C148.758 43.0071 148.278 43.3288 147.581 43.3288V43.6097ZM149.245 42.5612V42.842H150.884V42.5612V42.2804H149.245V42.5612ZM150.884 42.5612L150.61 42.4975C150.288 43.883 149.188 44.7705 147.594 44.7705V45.0513V45.3321C149.433 45.3321 150.772 44.2799 151.157 42.6249L150.884 42.5612ZM147.594 45.0513V44.7705C146.643 44.7705 145.869 44.4525 145.334 43.9173C144.798 43.3821 144.48 42.6083 144.48 41.6569H144.2H143.919C143.919 42.7369 144.282 43.6603 144.936 44.3145C145.591 44.9686 146.514 45.3321 147.594 45.3321V45.0513ZM144.2 41.6569H144.48C144.48 40.7126 144.798 39.9457 145.333 39.4154C145.868 38.8848 146.642 38.5696 147.594 38.5696V38.2887V38.0079C146.515 38.0079 145.592 38.3676 144.937 39.0166C144.283 39.6657 143.919 40.5829 143.919 41.6569H144.2ZM147.594 38.2887V38.5696C149.179 38.5696 150.288 39.4476 150.597 40.8019L150.87 40.7395L151.144 40.6771C150.772 39.0433 149.416 38.0079 147.594 38.0079V38.2887ZM150.87 40.7395V40.4587H149.232V40.7395V41.0203H150.87V40.7395ZM149.232 40.7395L149.49 40.6289C149.165 39.8705 148.465 39.4495 147.581 39.4495V39.7304V40.0112C148.27 40.0112 148.749 40.3242 148.974 40.8501L149.232 40.7395ZM147.581 39.7304V39.4495C146.973 39.4495 146.443 39.6524 146.065 40.0496C145.689 40.4455 145.491 41.0055 145.491 41.67H145.772H146.053C146.053 41.1157 146.216 40.7059 146.472 40.4366C146.727 40.1687 147.101 40.0112 147.581 40.0112V39.7304ZM151.226 41.6569H151.507C151.507 40.7126 151.825 39.9457 152.36 39.4154C152.895 38.8848 153.668 38.5696 154.621 38.5696V38.2887V38.0079C153.542 38.0079 152.618 38.3676 151.964 39.0166C151.309 39.6657 150.945 40.5829 150.945 41.6569H151.226ZM154.621 38.2887V38.5696C155.573 38.5696 156.343 38.8847 156.875 39.4148C157.406 39.9449 157.721 40.7118 157.721 41.6569H158.002H158.283C158.283 40.5837 157.923 39.6666 157.271 39.0171C156.62 38.3677 155.7 38.0079 154.621 38.0079V38.2887ZM158.002 41.6569H157.721C157.721 42.6091 157.406 43.3829 156.874 43.9178C156.342 44.4526 155.572 44.7705 154.621 44.7705V45.0513V45.3321C155.701 45.3321 156.621 44.9685 157.272 44.3139C157.923 43.6595 158.283 42.7361 158.283 41.6569H158.002ZM154.621 45.0513V44.7705C153.669 44.7705 152.896 44.4525 152.36 43.9173C151.825 43.3821 151.507 42.6083 151.507 41.6569H151.226H150.945C150.945 42.7369 151.309 43.6603 151.963 44.3145C152.617 44.9686 153.541 45.3321 154.621 45.3321V45.0513ZM152.799 41.67H152.518C152.518 42.3346 152.716 42.8946 153.092 43.2904C153.469 43.6876 154 43.8905 154.608 43.8905V43.6097V43.3288C154.128 43.3288 153.754 43.1713 153.499 42.9034C153.243 42.6341 153.08 42.2243 153.08 41.67H152.799ZM154.608 43.6097V43.8905C155.221 43.8905 155.755 43.6882 156.134 43.2909C156.513 42.8949 156.71 42.3346 156.71 41.67H156.429H156.148C156.148 42.2243 155.985 42.6338 155.728 42.9029C155.472 43.1708 155.095 43.3288 154.608 43.3288V43.6097ZM156.429 41.67H156.71C156.71 41.0055 156.513 40.4451 156.134 40.0491C155.755 39.6519 155.221 39.4495 154.608 39.4495V39.7304V40.0112C155.095 40.0112 155.472 40.1693 155.728 40.4372C155.985 40.7063 156.148 41.1157 156.148 41.67H156.429ZM154.608 39.7304V39.4495C154 39.4495 153.469 39.6524 153.092 40.0496C152.716 40.4455 152.518 41.0055 152.518 41.67H152.799H153.08C153.08 41.1157 153.243 40.7059 153.499 40.4366C153.754 40.1687 154.128 40.0112 154.608 40.0112V39.7304ZM163.75 35.7593V35.4785H163.469V35.7593H163.75ZM165.323 35.7593H165.604V35.4785H165.323V35.7593ZM163.75 39.0226L163.528 39.1946L164.031 39.8441V39.0226H163.75ZM163.75 35.7593V36.0401H165.323V35.7593V35.4785H163.75V35.7593ZM165.323 35.7593H165.042V41.67H165.323H165.604V35.7593H165.323ZM165.323 41.67H165.042C165.042 42.6545 164.692 43.4199 164.136 43.9404C163.578 44.4632 162.792 44.7574 161.889 44.7574V45.0382V45.319C162.913 45.319 163.844 44.9841 164.52 44.3504C165.2 43.7143 165.604 42.7956 165.604 41.67H165.323ZM161.889 45.0382V44.7574C160.965 44.7574 160.204 44.4434 159.675 43.9127C159.146 43.382 158.828 42.6144 158.828 41.67H158.547H158.266C158.266 42.7439 158.63 43.6605 159.277 44.3093C159.924 44.958 160.834 45.319 161.889 45.319V45.0382ZM158.547 41.67H158.828C158.828 40.7184 159.146 39.9429 159.667 39.4068C160.189 38.8711 160.93 38.5565 161.81 38.5565V38.2756V37.9948C160.791 37.9948 159.9 38.3617 159.265 39.0153C158.63 39.6685 158.266 40.5902 158.266 41.67H158.547ZM161.81 38.2756V38.5565C162.695 38.5565 163.282 38.8763 163.528 39.1946L163.75 39.0226L163.972 38.8507C163.589 38.3564 162.813 37.9948 161.81 37.9948V38.2756ZM163.75 39.0226H164.031V35.7593H163.75H163.469V39.0226H163.75ZM160.12 41.6569H159.839C159.839 42.3215 160.036 42.8815 160.413 43.2773C160.79 43.6745 161.321 43.8774 161.928 43.8774V43.5966V43.3157C161.448 43.3157 161.074 43.1582 160.82 42.8903C160.564 42.621 160.401 42.2112 160.401 41.6569H160.12ZM161.928 43.5966V43.8774C162.542 43.8774 163.075 43.6751 163.455 43.2778C163.834 42.8818 164.031 42.3215 164.031 41.6569H163.75H163.469C163.469 42.2112 163.306 42.6207 163.049 42.8898C162.793 43.1576 162.416 43.3157 161.928 43.3157V43.5966ZM163.75 41.6569H164.031C164.031 40.9923 163.834 40.432 163.455 40.036C163.075 39.6387 162.542 39.4364 161.928 39.4364V39.7173V39.9981C162.416 39.9981 162.793 40.1562 163.049 40.424C163.306 40.6931 163.469 41.1026 163.469 41.6569H163.75ZM161.928 39.7173V39.4364C161.321 39.4364 160.79 39.6393 160.413 40.0365C160.036 40.4324 159.839 40.9924 159.839 41.6569H160.12H160.401C160.401 41.1026 160.564 40.6928 160.82 40.4235C161.074 40.1556 161.448 39.9981 161.928 39.9981V39.7173ZM167.611 40.7395L167.353 40.6289L167.185 41.0203H167.611V40.7395ZM170.901 40.7395V41.0203H171.326L171.159 40.6289L170.901 40.7395ZM170.73 42.902V42.6211H170.582L170.499 42.7431L170.73 42.902ZM172.447 42.902L172.714 42.9892L172.834 42.6211H172.447V42.902ZM172.617 42.1811V42.462H172.877L172.897 42.2027L172.617 42.1811ZM167.493 42.1811V41.9003H167.154L167.217 42.2331L167.493 42.1811ZM167.611 40.7395V41.0203H170.901V40.7395V40.4587H167.611V40.7395ZM170.901 40.7395L171.159 40.6289C170.834 39.8705 170.133 39.4495 169.249 39.4495V39.7304V40.0112C169.938 40.0112 170.417 40.3242 170.642 40.8501L170.901 40.7395ZM169.249 39.7304V39.4495C168.377 39.4495 167.677 39.8715 167.353 40.6289L167.611 40.7395L167.869 40.8501C168.095 40.3232 168.575 40.0112 169.249 40.0112V39.7304ZM169.249 43.6097V43.8905C169.981 43.8905 170.586 43.6083 170.962 43.0608L170.73 42.902L170.499 42.7431C170.245 43.113 169.828 43.3288 169.249 43.3288V43.6097ZM170.73 42.902V43.1828H172.447V42.902V42.6211H170.73V42.902ZM172.447 42.902L172.18 42.8147C171.789 44.011 170.74 44.7705 169.262 44.7705V45.0513V45.3321C170.957 45.3321 172.24 44.4403 172.714 42.9892L172.447 42.902ZM169.262 45.0513V44.7705C168.311 44.7705 167.537 44.4525 167.002 43.9173C166.467 43.3821 166.149 42.6083 166.149 41.6569H165.868H165.587C165.587 42.7369 165.951 43.6603 166.605 44.3145C167.259 44.9686 168.182 45.3321 169.262 45.3321V45.0513ZM165.868 41.6569H166.149C166.149 40.7126 166.466 39.9457 167.001 39.4154C167.536 38.8848 168.31 38.5696 169.262 38.5696V38.2887V38.0079C168.183 38.0079 167.26 38.3676 166.606 39.0166C165.951 39.6657 165.587 40.5829 165.587 41.6569H165.868ZM169.262 38.2887V38.5696C170.214 38.5696 170.985 38.8847 171.516 39.4148C172.048 39.9449 172.363 40.7118 172.363 41.6569H172.644H172.924C172.924 40.5837 172.564 39.6666 171.913 39.0171C171.262 38.3677 170.342 38.0079 169.262 38.0079V38.2887ZM172.644 41.6569H172.363C172.363 41.828 172.351 41.988 172.337 42.1596L172.617 42.1811L172.897 42.2027C172.91 42.0335 172.924 41.8528 172.924 41.6569H172.644ZM172.617 42.1811V41.9003H167.493V42.1811V42.462H172.617V42.1811ZM167.493 42.1811L167.217 42.2331C167.313 42.7416 167.549 43.1613 167.909 43.4528C168.269 43.7437 168.731 43.8905 169.249 43.8905V43.6097V43.3288C168.837 43.3288 168.506 43.2135 168.263 43.0163C168.02 42.8196 167.844 42.525 167.769 42.1291L167.493 42.1811ZM173.244 44.9333H172.963V45.2142H173.244V44.9333ZM173.244 35.7593V35.4785H172.963V35.7593H173.244ZM174.882 35.7593H175.163V35.4785H174.882V35.7593ZM174.882 44.9333V45.2142H175.163V44.9333H174.882ZM173.244 44.9333H173.525V35.7593H173.244H172.963V44.9333H173.244ZM173.244 35.7593V36.0401H174.882V35.7593V35.4785H173.244V35.7593ZM174.882 35.7593H174.602V44.9333H174.882H175.163V35.7593H174.882ZM174.882 44.9333V44.6525H173.244V44.9333V45.2142H174.882V44.9333ZM175.663 44.9333H175.382V45.2142H175.663V44.9333ZM175.663 35.7593V35.4785H175.382V35.7593H175.663ZM177.301 42.5088V42.2279H177.021V42.5088H177.301ZM177.301 44.9333V45.2142H177.582V44.9333H177.301ZM177.301 37.2665V36.9856H177.021V37.2665H177.301ZM177.301 41.0016H177.021V41.2825H177.301V41.0016ZM175.663 44.9333H175.944V35.7593H175.663H175.382V44.9333H175.663ZM175.663 35.7593V36.0401H179.818V35.7593V35.4785H175.663V35.7593ZM179.818 35.7593V36.0401C180.756 36.0401 181.517 36.3518 182.042 36.8769C182.567 37.402 182.879 38.1625 182.879 39.1013H183.16H183.441C183.441 38.0349 183.084 37.1244 182.439 36.4798C181.795 35.8352 180.884 35.4785 179.818 35.4785V35.7593ZM183.16 39.1013H182.879C182.879 40.0752 182.566 40.8521 182.041 41.3844C181.516 41.9164 180.756 42.2279 179.818 42.2279V42.5088V42.7896C180.884 42.7896 181.796 42.4328 182.441 41.7787C183.085 41.125 183.441 40.1981 183.441 39.1013H183.16ZM179.818 42.5088V42.2279H177.301V42.5088V42.7896H179.818V42.5088ZM177.301 42.5088H177.021V44.9333H177.301H177.582V42.5088H177.301ZM177.301 44.9333V44.6525H175.663V44.9333V45.2142H177.301V44.9333ZM179.674 41.0016V41.2825C180.294 41.2825 180.831 41.077 181.214 40.694C181.597 40.311 181.802 39.7737 181.802 39.1537H181.521H181.241C181.241 39.6477 181.079 40.0344 180.817 40.2968C180.554 40.5593 180.168 40.7208 179.674 40.7208V41.0016ZM181.521 39.1537H181.802C181.802 38.5166 181.598 37.9695 181.215 37.5805C180.832 37.1912 180.294 36.9856 179.674 36.9856V37.2665V37.5473C180.167 37.5473 180.553 37.7087 180.815 37.9747C181.077 38.241 181.241 38.6375 181.241 39.1537H181.521ZM179.674 37.2665V36.9856H177.301V37.2665V37.5473H179.674V37.2665ZM177.301 37.2665H177.021V41.0016H177.301H177.582V37.2665H177.301ZM177.301 41.0016V41.2825H179.674V41.0016V40.7208H177.301V41.0016Z" fill="#202B5D" mask="url(#path-4-inside-1_905_448)"/>
</svg>
